<?xml version="1.0" encoding="utf-8"?>
<svg id="Capa_1" data-name="Capa 1" viewBox="0 0 515.92 310.14" xmlns="http://www.w3.org/2000/svg">
  <defs>
    <style>
      .cls-1 {
        fill: #d2f90a;
      }
    </style>
  </defs>
  <path class="cls-1" d="M -0.589 148.078 C -0.589 108.718 -0.879 56.942 -0.479 17.582 C -0.259 -4.388 -7.728 -4.744 32.852 -4.774 C 171.062 -4.894 327.88 0.05 466.08 0.36 C 505.37 0.45 532.51 -7.384 532.6 13.906 C 532.9 86.826 519.048 172.86 516.118 245.76 C 515.078 271.76 491.7 295.13 443.14 306 C 395.5 316.66 357.1 305.49 323.43 287.39 C 309.86 280.1 296.31 272.64 281.11 266.41 C 221.75 242.05 168.33 244.03 113.16 270.92 C 99.3 277.68 82.73 283.99 65.29 287.24 C 23.87 294.97 0.356 285.385 0.086 261.835 C -0.354 223.115 -1.068 185.774 -1.068 147.054 C -1.378 147.054 0.39 146.02 0.08 146.02 L -0.589 148.078 Z"/>
</svg>